<?xml version="1.0" encoding="utf-8"?>
<!-- Generator: Adobe Illustrator 16.0.0, SVG Export Plug-In . SVG Version: 6.00 Build 0)  -->
<!DOCTYPE svg PUBLIC "-//W3C//DTD SVG 1.1//EN" "http://www.w3.org/Graphics/SVG/1.1/DTD/svg11.dtd">
<svg version="1.1" id="圖層_1" xmlns="http://www.w3.org/2000/svg" xmlns:xlink="http://www.w3.org/1999/xlink" x="0px" y="0px"
	 width="225px" height="45px" viewBox="0 0 225 45" enable-background="new 0 0 225 45" xml:space="preserve">
<path fill-rule="evenodd" clip-rule="evenodd" fill="#FFFFFF" d="M69.402,20.489c-0.127-0.64-0.131-1.297-0.217-1.943
	c-0.09-0.679-0.224-1.354-0.252-2.04c-0.048-1.123,0.086-2.243,0.076-3.365c-0.001-0.089,0.029-0.293-0.035-0.373
	c-0.085-0.108-0.146-0.147-0.181-0.17c-0.098-0.064-0.069-0.115-0.015-0.207c0.015-0.025,0.033-0.057,0.056-0.098
	c0.218-0.397,0.147-0.66-0.094-1.103c-0.133-0.285-0.377-0.6-0.571-0.732c-0.211-0.144-0.336-0.151-0.584-0.166
	c-0.144-0.008-0.322-0.019-0.575-0.059c-0.54-0.102-0.934-0.292-1.194-0.418c-0.063-0.031-0.118-0.058-0.175-0.083
	c-0.112-0.066-0.456-0.107-0.921-0.107c-1.494,0-2.946,0.439-4.376,0.822c-0.659,0.176-1.327,0.38-2.017,0.357
	c-0.395-0.014-0.793-0.222-1.19-0.157c-0.427,0.07-0.573,0.417-0.789,0.748l-0.012,0.019c-0.36,0.553-0.473,1.418-0.628,2.052
	c-0.137,0.559-0.109,1.14-0.198,1.706c-0.088,0.563-0.277,1.104-0.445,1.647c-0.178,0.575-0.354,1.162-0.667,1.681
	c-0.188,0.312-0.358,0.583-0.316,0.958c0.042,0.359,0.226,0.68,0.361,1.009c0.17,0.416,0.317,0.839,0.458,1.264
	c0.075,0.227,0.059,0.484,0.158,0.701c0.09,0.198,0.32,0.347,0.327,0.578c0.008,0.255,0.021,0.681,0.141,0.754
	c0.168,0.104,0.315,0.154,0.449,0.154c0.264,0,0.449-0.205,0.646-0.422c0.432-0.476,0.852-0.344,1.445-0.372
	c0.968-0.046,1.875-0.436,2.845-0.486c0.653-0.034,1.307,0.013,1.96,0.028c0.634,0.015,1.262-0.064,1.895-0.064
	c0.412,0,0.497,0.056,0.527,0.116l0.026,0.05c0.108,0.219,0.258,0.517,0.481,0.604c0.473,0.184,0.917,0.379,1.373,0.607
	c0.451,0.226,0.935,0.447,1.45,0.447c0.322,0,0.528-0.206,0.64-0.492C69.656,22.927,69.61,21.531,69.402,20.489 M63.905,11.175
	c0.049-0.095,0.112-0.125,0.183-0.126c0.143-0.001,0.285,0.073,0.418,0.113l0.045,0.013l-0.003,0.098
	c-0.017,0.481-0.041,0.585-0.631,0.64l-0.036,0.003l-0.02-0.028C63.79,11.785,63.803,11.37,63.905,11.175 M62.938,13.362
	l-0.023-0.099c0.223,0.062,0.335,0.045,0.369,0.296c0.056,0.411,0.062,0.828,0.075,1.242c0,0.006,0.009,0.259,0.009,0.259
	l-0.027,0.02c-0.285,0.197-0.556,0.532-0.842,0.886c-0.452,0.559-0.917,1.136-1.495,1.214l-0.137,0.019l0.079-0.112
	c0.113-0.161,0.255-0.414,0.405-0.682c0.258-0.46,0.55-0.983,0.812-1.245C63.158,14.298,63.137,14.209,62.938,13.362 M60.183,15.305
	c-0.062,0-0.12-0.021-0.173-0.062c-0.177-0.132-0.069-0.278,0.051-0.396c0.12-0.118,0.229-0.239,0.305-0.389
	c0.074-0.149,0.118-0.315,0.236-0.438c0.125-0.132,0.308-0.197,0.467-0.275c0.309-0.152,0.73-0.519,1.121-0.508
	c0.09,0.002,0.18,0.024,0.265,0.075c-0.028,0.028-0.062,0.046-0.098,0.068c-0.221,0.132-0.432,0.25-0.596,0.455
	C61.37,14.323,60.927,15.304,60.183,15.305 M57.485,13.031c0-0.002,0.069-0.222,0.136-0.463l0.007-0.026l0.024-0.012
	c0.302-0.148,0.606-0.228,0.9-0.305c0.445-0.117,0.905-0.238,1.394-0.604c0.309-0.184,1.603-0.438,2.234-0.438
	c0.229,0,0.339,0.571,0.359,0.686l0.009,0.055l-0.053,0.015c-0.184,0.047-0.467,0.063-0.742,0.078
	c-0.901,0.049-1.768,0.312-2.614,0.614c-0.449,0.16-1.021,0.506-1.506,0.506c-0.065,0-0.11-0.016-0.137-0.048l-0.022-0.026
	L57.485,13.031z M58.537,21.339c0.043,0.082,0.218,0.145,0.371,0.145c0.169,0,0.382-0.043,0.652-0.029
	c0.192,0.01,0.636,0.071,0.636,0.071c-0.108-0.014-0.296,0.065-0.407,0.084c-0.751,0.123-1.565,0.271-2.329,0.271
	c-0.777,0-1.04-0.881-1.138-1.507c-0.138-0.878-0.32-1.957-0.154-2.829c0.136-0.716,0.447-1.393,0.482-2.128
	c0.012-0.27,0.043-0.633,0.196-0.872l0.017-0.026l0.031-0.002c0.242-0.012,0.492-0.012,0.727-0.076
	c0.215-0.058,0.426-0.15,0.653-0.15c0.153,0,0.464,0.07,0.506,0.247c0.023,0.094-0.056,0.177-0.198,0.328
	c-0.214,0.226-0.396,0.496-0.644,0.685c-0.424,0.324-1.007,0.658-1.063,1.25c-0.009,0.104,0.335,0.227,0.414,0.262
	c0.476,0.22,0.842,0.107,1.296-0.105c0.153-0.072,0.313-0.146,0.468-0.194l0.017-0.004h0.01c0.029,0,0.055,0.018,0.065,0.045
	c0.046,0.125-0.505,0.79-0.511,0.795c-0.45,0.387-1.089,0.495-1.486,0.948c-0.099,0.112-0.166,0.212-0.17,0.333
	c-0.011,0.381,0.357,0.449,0.627,0.599c0.283,0.158,0.573,0.265,0.894,0.149c0.573-0.207,0.962-0.659,1.581-0.817
	c0.562-0.144,1.147-0.167,1.708-0.312c0.428-0.111,0.916-0.236,1.224-0.578c0.297-0.329,0.297-0.329,0.68-0.944l0.017-0.029h0.034
	c0.072,0,0.14,0.013,0.22,0.031c0.042,0.011,0.074,0.04,0.087,0.084c0.063,0.218-0.383,0.922-0.444,0.982
	c-0.808,0.815-2.116,1.24-3.171,1.633c-0.539,0.201-1.083,0.395-1.476,0.835C58.83,20.654,58.422,21.127,58.537,21.339
	 M66.616,21.831c-0.327-0.031-0.396-0.438-0.567-0.652c-0.004-0.006-0.01-0.011-0.014-0.018c-0.18-0.213-0.436-0.296-0.711-0.296
	c-0.48,0-0.95,0.157-1.426,0.203c-0.53,0.05-1.063,0.039-1.592,0.092c-0.398,0.041-0.802,0.083-1.196,0.151
	c-0.203,0.035-0.433,0.079-0.625,0.104c0.21-0.366,0.831-0.616,1.208-0.753c0.457-0.165,0.93-0.338,1.209-0.523l0.021-0.01
	l0.016-0.001c0.009,0,0.017,0,0.025,0c0.016,0,0.061,0,0.091,0.037c0.031,0.038-0.031,0.117-0.07,0.174
	c0.138-0.026,0.325-0.113,0.385-0.139c0.161-0.064,0.317-0.144,0.449-0.258c0.264-0.23,0.375-0.581,0.563-0.867
	c0.127-0.193,0.303-0.492,0.545-0.554c0.009-0.003,0.021-0.004,0.03-0.004c0.242,0,0.328,0.32,0.396,0.501
	c0.135,0.363,0.31,0.712,0.449,1.075c0.08,0.21,0.143,0.433,0.29,0.609c0.234,0.278,0.683,0.213,1.001,0.182
	c0.071-0.008,0.321-0.067,0.321-0.067S67.415,21.907,66.616,21.831 M67.499,14.738c-0.005,0.141-0.009,0.276-0.011,0.404
	c-0.006,0.591-0.031,1.19-0.056,1.771c-0.026,0.605-0.053,1.23-0.057,1.847v0.039l-0.035,0.016
	c-0.016,0.007-0.031,0.015-0.045,0.022c-0.367,0.185-0.638-0.352-0.775-0.617c-0.16-0.308-0.255-0.642-0.346-0.975
	c-0.068-0.245-0.131-0.476-0.218-0.638l-0.015-0.028l0.015-0.028c0.139-0.266,0.314-0.51,0.453-0.775
	c0.147-0.283,0.279-0.574,0.432-0.853c0.103-0.189,0.33-0.548,0.259-0.778c-0.255-0.422-0.571-0.646-0.917-0.646
	c-0.278,0-0.531,0.144-0.721,0.341c-0.35,0.364-0.03,0.982-0.303,1.401l-0.045,0.068l-0.053-0.063
	c-0.026-0.031-0.446-0.482-0.536-0.537l-0.021-0.013l-0.006-0.023c-0.003-0.012-0.304-1.245-0.145-1.381
	c0.184-0.157,0.482-0.18,0.713-0.183c0.263-0.003,0.57,0.113,0.815-0.026c0.175-0.099,0.308-0.289,0.356-0.482
	c0.092-0.362,0.045-0.552-0.189-0.782l0.059-0.102C67.336,12.072,67.535,13.709,67.499,14.738"/>
<path fill-rule="evenodd" clip-rule="evenodd" fill="#FFFFFF" d="M84.823,15.604c0.417-0.041,0.849-0.004,1.218,0.158l0.081,0.035
	L86.06,15.86c-0.779,0.777-0.967,1.936-1.692,2.751c-0.604,0.68-1.457,1.205-2.245,1.649c-0.415,0.234-0.881,0.33-1.32,0.51
	c-0.381,0.158-0.664,0.499-1.056,0.625c-0.282,0.089-0.617,0.067-0.908,0.079c-0.794,0.034-1.601,0.095-2.384,0.225
	c-0.347,0.058-0.577,0.557-0.59,0.868c-0.011,0.282,0.249,0.478,0.458,0.616c0.258,0.173,0.461,0.234,0.76,0.123
	c0.325-0.12,0.671-0.146,1.006-0.225c0.472-0.109,0.937-0.256,1.413-0.345c0.484-0.091,0.97-0.083,1.459-0.12
	c1.147-0.088,2.187-0.708,3.359-0.457c0.338,0.073,0.667,0.186,1.005,0.256c0.765,0.16,1.565,0.058,2.333-0.028
	c0.83-0.094,1.636-0.105,2.471-0.107c0.315,0,0.966,0.06,1.196-0.22c0.297-0.427,0.415-0.757,0.356-1.009
	c-0.124-0.54-0.848-0.722-1.253-0.991c-0.269-0.18-0.667-0.106-0.968-0.072c-0.917,0.102-1.799,0.424-2.721,0.485
	c-0.475,0.032-1.061,0.033-1.503-0.168c0,0-0.034-0.016-0.036-0.016c-0.166-0.076,0.429-0.774,0.487-0.845
	c0.481-0.568,0.939-1.306,1.083-2.046c0.109-0.559,0.3-0.694,0.717-0.992c0.092-0.065,0.199-0.118,0.278-0.2
	c0.083-0.088,0.1-0.202,0.172-0.296l0.015-0.021l0.025-0.003c0.391-0.046,0.774-0.136,1.155-0.234
	c0.357-0.094,0.695-0.181,1.115-0.215c0.068-0.005,0.126-0.042,0.171-0.111c0.104-0.158,0.118-0.439,0.066-0.593
	c-0.125-0.369-0.498-0.649-0.834-0.812c-0.293-0.142-0.605-0.142-0.921-0.092c-0.321,0.05-0.652,0.095-0.971,0.161
	c-0.21,0.044-0.407,0.148-0.62,0.176c-0.626,0.082-1.248-0.06-1.858-0.182l-0.039-0.007l-0.008-0.039
	c-0.074-0.35-0.248-0.668-0.431-0.971c-0.156-0.255-0.398-0.555-0.383-0.87c0.035-0.767-0.669-1.487-1.451-1.318
	c-0.105,0.023-0.597,0.207-0.583,0.361c0.038,0.433-0.071,0.881,0.043,1.308c0.127,0.469,0.577,0.714,0.762,1.147
	c0.065,0.152,0.191,0.306,0.323,0.405c0.088,0.081,0.024,0.258,0.003,0.311l-0.007,0.018l-0.016,0.011
	c-0.174,0.11-0.388,0.091-0.583,0.128c-0.202,0.038-0.388,0.132-0.584,0.191c-0.655,0.197-1.416,0.417-2.104,0.417
	c-0.151,0-0.246-0.027-0.299-0.086c-0.027-0.029-0.041-0.064-0.044-0.104c-0.009-0.125-0.964-0.009-1.065,0.024
	c-0.477,0.154-0.92,0.755-0.738,1.275c0.128,0.365,0.832,0.348,1.138,0.348c0.535,0,1.073-0.077,1.592-0.203
	c0.366-0.089,0.704-0.268,1.085-0.287c0.014,0.024,0.006,0.042-0.001,0.069c-0.049,0.187-0.091,0.262-0.265,0.371
	c-0.333,0.211-0.616,0.487-0.896,0.764c-0.272,0.269-0.589,0.538-0.756,0.891c-0.164,0.344-0.272,1.283-0.1,1.677
	c0.186,0.424,0.94,0.032,1.153-0.165c0.327-0.301,0.582-0.667,0.827-1.034c0.212-0.32,0.542-0.658,0.679-1.015
	c0.133-0.343,0.107-0.722,0.249-1.072c0.06-0.147,0.119-0.3,0.165-0.464l0.012-0.039l0.041-0.004
	C83.621,15.955,84.197,15.666,84.823,15.604"/>
<path fill="#FFFFFF" d="M110.924,22.429c-0.692-0.245-1.476,0.159-2.185,0.144c-0.369-0.01-0.738-0.042-1.107-0.042
	c-0.05,0-0.099,0-0.146,0.002l-0.052,0.001c0.028-0.091,0.051-0.243,0.068-0.388c0.338-0.052,0.691-0.062,1.066-0.068
	c0.655-0.011,1.567,0.016,1.886-0.25c0.093-0.092,0.135-0.256,0.152-0.362c0.004-0.026,0.007-0.05,0.012-0.074
	c0.071-0.367-0.054-0.599-0.382-0.713c-0.253-0.088-0.578-0.1-0.839-0.11c-0.074-0.002-0.142-0.006-0.194-0.009l-0.149,0.013
	c-0.58,0.054-1.126,0.104-1.675,0.169l-0.044,0.005l-0.018-0.041c-0.021-0.048-0.081-0.123-0.102-0.147l-0.056-0.066l0.082-0.03
	c0.581-0.212,1.12-0.229,1.729-0.186c0.259,0.02,0.514-0.015,0.771-0.001c0.084,0.004,0.305,0.027,0.311-0.103
	c0.02-0.348,0.193-0.727,0.073-1.071c-0.086-0.249-0.365-0.484-0.304-0.771c0.032-0.155,0.269-0.228,0.378-0.311
	c0.066-0.051,0.109-0.08,0.11-0.166c0.002-0.132-0.066-0.268-0.075-0.4c-0.005-0.066-0.008-0.101-0.025-0.127
	c-0.218-0.186-0.577-0.252-0.855-0.252c-0.317-0.001-0.608,0.108-0.893,0.237c-0.342,0.156-0.674,0.282-1.051,0.299
	c-0.362,0.016-0.731-0.033-1.082,0.079c-1.048,0.334-2.102,0.162-3.167,0.301c-0.224,0.03-0.432,0.12-0.646,0.188
	c-0.085,0.027-0.261,0.039-0.321,0.105c-0.071,0.317,0.206,0.733,0.679,1.012c0.009,0.006,0.024,0.016,0.059,0.016
	c0.04,0,0.089-0.012,0.147-0.024c0.082-0.018,0.174-0.037,0.28-0.037c0.018,0,0.037,0.001,0.056,0.002l0.057,0.003v0.235
	l-0.028,0.018c-0.116,0.07-0.25,0.139-0.395,0.213c-0.491,0.249-1.047,0.532-1.047,1.031c0.013,0.084,0.1,0.125,0.267,0.199
	c0.143,0.063,0.298,0.189,0.452,0.211c0.158,0.025,0.32-0.057,0.463-0.108c0.59-0.21,1.242-0.234,1.832-0.397
	c0.143-0.04,0.286-0.026,0.43,0.001l0.05,0.009v0.05c0,0.013,0.006,0.033,0.012,0.058c0.022,0.076,0.053,0.194-0.013,0.372
	l-0.007,0.018l-0.016,0.011c-0.191,0.126-0.402,0.228-0.618,0.301c-0.634,0.213-1.435,0.343-2.101,0.259
	c-0.244-0.03-0.481-0.2-0.714-0.063c-0.17,0.099-0.336,0.208-0.502,0.316c-0.194,0.127-0.396,0.265-0.186,0.478
	c0.131,0.134,0.298,0.232,0.445,0.348c0.191,0.15,0.326,0.204,0.571,0.181c0.244-0.025,0.477-0.105,0.717-0.15
	c0.614-0.112,1.25-0.229,1.885-0.257l0.082-0.004l-0.02,0.078c-0.124,0.487-0.864,0.644-1.279,0.72
	c-0.645,0.119-1.301,0.101-1.95,0.026c-0.085-0.011-0.183-0.026-0.286-0.044c-0.183-0.029-0.41-0.098-0.589-0.025
	c-0.17,0.067-0.289,0.22-0.429,0.332c-0.12,0.094-0.286,0.209-0.285,0.382c0,0.164,0.181,0.313,0.29,0.413
	c0.26,0.238,0.454,0.388,0.792,0.41c0.028,0.002,0.057,0.002,0.087,0.002c0.404,0.002,0.799-0.104,1.196-0.161
	c0.463-0.065,0.926-0.132,1.377-0.259c0.509-0.144,1.008-0.333,1.536-0.393c0.54-0.063,1.084-0.008,1.625,0.024
	c1.554,0.089,3.147,0.221,4.692-0.034c0.133-0.022,0.201-0.189,0.204-0.289c-0.021-0.228-0.097-0.487-0.215-0.684
	C111.613,22.771,111.261,22.549,110.924,22.429 M106.734,19c-0.325,0.014-0.622,0.184-0.947,0.184h-0.043l-0.014-0.042
	c-0.012-0.036-0.025-0.075-0.04-0.113c-0.016-0.048-0.034-0.096-0.047-0.141l-0.014-0.045l0.042-0.025
	c0.201-0.113,0.489-0.099,0.711-0.146c0.268-0.057,0.528-0.083,0.791-0.095c0.248-0.01,0.496-0.009,0.753-0.009h0.069l-0.01,0.068
	c-0.022,0.164-0.093,0.224-0.209,0.273C107.439,19.049,107.086,18.983,106.734,19"/>
<path fill="#FFFFFF" d="M114.648,17.455c-0.061-0.373-0.146-0.788-0.554-0.917c-0.267-0.084-0.552-0.075-0.82-0.148
	c-0.277-0.075-0.538-0.202-0.801-0.313c-0.336-0.143-0.67-0.223-1.022-0.312c-0.653-0.167-1.387-0.463-2.068-0.277
	c-0.273,0.075-0.507,0.237-0.769,0.339c-0.248,0.098-0.517,0.149-0.775,0.21c-0.575,0.133-1.161,0.248-1.751,0.25
	c-1.028,0.004-2.116,0.022-3.097,0.365c-0.094,0.033-0.19,0.073-0.277,0.125c-0.076,0.045-0.148,0.128-0.241,0.14
	c-0.345,0.041-0.481-0.438-0.815-0.45c-0.148-0.006-0.299-0.014-0.446,0.008c-0.164,0.023-0.309,0.103-0.458,0.167
	c-0.351,0.152-0.729,0.251-1.022,0.509c-0.237,0.208-0.42,0.474-0.703,0.626c-0.396,0.214-0.722,0.539-1.128,0.732
	c-0.178,0.086-0.349,0.136-0.545,0.136c-0.129,0-0.371-0.06-0.478,0.046c-0.401,0.407,0.631,1.269,0.998,1.269
	c0.69,0,0.963-0.62,1.467-0.939c0.292-0.185,0.639-0.263,0.947-0.41c0.351-0.167,0.683-0.373,1.019-0.568
	c0.368-0.214,0.604-0.421,0.668-0.858c0.001,0,0.008-0.051,0.008-0.051h0.052c0.152,0,0.352,0.298,0.444,0.4
	c0.322,0.352,0.567,0.43,1.029,0.292c0.246-0.074,0.494-0.139,0.746-0.19c0.291-0.059,0.586-0.1,0.88-0.13
	c1-0.103,2.073-0.022,3.038-0.335c0.3-0.098,0.59-0.229,0.896-0.309c1.026-0.269,2.292,0.022,3.235,0.452l0.025,0.011l0.007,0.024
	c0.094,0.281-0.88,0.572-1.007,0.792c-0.052,0.091-0.125,0.384-0.059,0.487c0.163,0.252,0.922,0.172,1.157,0.149
	c0.475-0.046,0.937-0.173,1.409-0.245c0.077-0.013,0.301-0.023,0.339-0.106C114.305,18.133,114.704,17.792,114.648,17.455"/>
<path fill="#FFFFFF" d="M101.938,12.853c0.246,0.263,0.536,0.573,0.887,0.688l0.025,0.008l0.011,0.025l0.012,0.031
	c0.044,0.095,0.006,0.249-0.044,0.331c-0.231,0.38-0.526,0.69-0.336,1.164c0.15,0.372,0.478,0.668,0.754,0.947
	c0.147,0.148,0.551,0.115,0.757,0.108c0.009,0,0.018,0,0.027,0c0.483-0.009,0.994-0.02,1.464-0.137
	c0.867-0.216,1.73-0.374,2.62-0.47c0.271-0.029,0.808,0.048,0.978-0.224c0.144-0.227,0.359-0.416,0.568-0.582
	c0.184-0.145,0.429-0.259,0.513-0.494c0.103-0.295,0.122-0.887-0.292-0.956c-0.826-0.136-1.704-0.103-2.536-0.084
	c-0.592,0.013-1.198,0.003-1.784,0.098c-0.306,0.05-0.607,0.124-0.91,0.186c-0.092,0.019-0.267,0.088-0.358,0.057
	c-0.09-0.033-0.208-0.186-0.292-0.251c0.268-0.08,0.538-0.151,0.808-0.221c0.609-0.159,1.178-0.254,1.808-0.262
	c0.809-0.01,1.618,0.001,2.427-0.009c0.351-0.003,0.825-0.046,1.093-0.296c0.137-0.127,0.522-0.706,0.296-0.853
	c-0.089-0.06-0.569-0.1-0.661-0.104c-0.398-0.019-0.794,0.05-1.188,0.099c-0.192,0.023-0.394,0.083-0.584,0.025v-0.043
	c-0.001-0.051-0.006-0.108-0.011-0.168l-0.006-0.054l0.053-0.012c0.332-0.074,0.684-0.072,1.021-0.1
	c0.437-0.035,0.872-0.081,1.305-0.153c0.329-0.056,0.553-0.072,0.482-0.442c-0.046-0.249-0.118-0.606-0.378-0.719
	c-0.413-0.179-0.949-0.061-1.37,0.03c-0.135,0.03-1.49,0.407-1.521,0.318c-0.005-0.016-0.009-0.034-0.015-0.05
	c-0.089-0.338-0.308-0.669-0.607-0.854c-0.23-0.144-0.673-0.339-0.899-0.083c-0.166,0.187-0.098,0.349-0.128,0.576
	c-0.018,0.134-0.065,0.266-0.106,0.394c-0.039,0.123-0.079,0.249-0.106,0.346l-0.008,0.029l-0.029,0.011
	c-0.433,0.164-0.93,0.311-1.383,0.135c-0.22-0.085-0.469-0.056-0.699-0.054c-0.271,0.003-0.539-0.021-0.811-0.008
	c-0.173,0.008-0.403,0.012-0.551,0.116c-0.196,0.136-0.298,0.262-0.311,0.386c-0.022,0.201,0.166,0.385,0.288,0.521
	c0.145,0.161,0.261,0.379,0.314,0.467c0.053,0.088,0.089,0.135,0.089,0.135c-0.157,0.035-0.307,0.083-0.451,0.13
	C102.054,12.563,101.799,12.705,101.938,12.853 M105.041,14.568l0.004-0.003l0.005-0.001c0.533-0.21,1.508-0.264,2.219-0.304
	c0.114-0.006,0.22-0.012,0.319-0.018l0.065-0.004l-0.001,0.064c-0.002,0.166-0.157,0.218-0.306,0.268l-0.056,0.02
	c-0.282,0.099-0.689,0.147-1.05,0.191c-0.313,0.038-0.609,0.073-0.728,0.133c-0.068,0.033-0.154,0.051-0.244,0.051
	c-0.12,0-0.259-0.035-0.288-0.13C104.955,14.76,104.964,14.615,105.041,14.568 M103.013,12.209c0.125-0.114,0.35-0.179,0.545-0.212
	c0,0,0.487-0.057,0.866-0.057c0.192,0,0.472-0.003,0.747,0.012l0.064,0.003c0.007,0.001-0.015,0.066-0.029,0.101
	c-0.042,0.1-0.094,0.145-0.094,0.145l-0.024,0.006c-0.236,0.055-0.479,0.081-0.769,0.081c-0.152,0-0.301-0.007-0.444-0.014
	c-0.138-0.006-0.267-0.012-0.395-0.012c-0.202,0-0.365,0.016-0.511,0.051l-0.116,0.027L103.013,12.209z"/>
<path fill="#FFFFFF" d="M144.721,12.215c0.178,0.096,0.37,0.173,0.564,0.228c0.56,0.159,1.122-0.025,1.65-0.208
	c0.48-0.166,1.501-0.25,1.824-0.674c0.064-0.087,0.096-0.166,0.105-0.269c0.011-0.135-0.319-0.279-0.411-0.341
	c-0.549-0.365-1.213-0.359-1.839-0.242c-0.535,0.101-1.261,0.205-1.74,0.47c-0.03,0.017-0.058,0.035-0.085,0.055
	c-0.144,0.11-0.245,0.272-0.336,0.424C144.287,11.935,144.493,12.093,144.721,12.215"/>
<path fill="#FFFFFF" d="M124.171,13.888c0.385,0.268,0.723,0.675,1.177,0.825c0.271,0.09,0.584,0.119,0.865,0.07
	c0.068-0.012,0.318-0.04,0.318-0.148c0-0.593-0.078-0.902-0.263-1.034c-0.494-0.351-1.012-0.672-1.472-1.068
	c-0.287-0.247-0.675-0.943-1.023-1.06c-0.098-0.007-0.194-0.014-0.293-0.014c-0.407,0-0.5,0.105-0.761,0.468
	c-0.046,0.064-0.116,0.132-0.128,0.213c-0.039,0.245,0.197,0.614,0.347,0.794C123.272,13.342,123.744,13.593,124.171,13.888"/>
<path fill="#FFFFFF" d="M125.998,16.489c-0.073-0.096-0.16-0.191-0.27-0.248c-0.024-0.013-0.051-0.019-0.079-0.019
	c-0.14,0-0.309,0.147-0.42,0.246l-0.093,0.082l-0.039-0.049c0-0.053-0.147-0.217-0.177-0.271c-0.054-0.094-0.104-0.19-0.163-0.281
	c-0.205-0.315-0.559-0.372-0.782-0.655c-0.177-0.223-0.215-0.543-0.482-0.693c-0.226-0.125-0.538-0.148-0.793-0.158
	c-0.27-0.01-0.589,0.034-0.748,0.277c-0.145,0.219-0.165,0.545-0.102,0.794c0.062,0.245,0.272,0.413,0.453,0.572
	c0.416,0.369,0.943,0.766,1.493,0.895c0.246,0.058,0.497,0.017,0.745,0.053l0.101,0.015l-0.062,0.081
	c-0.075,0.1-0.216,0.093-0.311,0.167c-0.102,0.082-0.166,0.202-0.244,0.304c-0.158,0.206-0.326,0.387-0.523,0.556
	c-0.806,0.693-1.326,1.687-2.09,2.43c-0.243,0.237-0.423,0.411-0.756,0.503c-0.198,0.057-0.414,0.102-0.581,0.23
	c-0.089,0.068-0.364,0.423-0.437,0.506c-0.128,0.146-0.265,0.346-0.171,0.544c0.139,0.295,0.611,0.537,0.911,0.541h0.006
	c0.798,0,1.785-1.173,2.304-1.689c0.448-0.445,0.736-0.993,1.104-1.5c0.382-0.528,0.773-1.039,1.242-1.492
	c0.432-0.416,0.926-0.819,1.144-1.397l-0.008-0.075C126.162,16.673,126.049,16.554,125.998,16.489"/>
<path fill="#FFFFFF" d="M128.266,17.061c0.169-0.047,0.253-0.295,0.333-0.432c0.093-0.155,0.353-0.577,0.501-0.964
	c0.106,0.13,0.229,0.245,0.383,0.316c0.166,0.076,0.346,0.152,0.528,0.181c0.019,0.003,0.046,0.007,0.078,0.01
	c0.109,0.01,0.271,0.01,0.303-0.064c0.003-0.008,0.006-0.023,0.011-0.034c0.138-0.04,0.345-0.107,0.449-0.149
	c0.125-0.05,0.807-0.282,0.963-0.335l0.001-0.006c0.127-0.031,0.24-0.187,0.333-0.271c0.206-0.188,0.551-0.531,0.621-0.813
	c0.066-0.27-0.161-0.47-0.308-0.672c-0.104-0.143-0.342-0.254-0.51-0.278c-0.009,0-0.018-0.001-0.028-0.001
	c-0.181,0-0.54,0.18-0.661,0.254c-0.12,0.075-0.706,0.255-0.899,0.297c-0.118,0.026-0.327,0.059-0.478,0.083
	c-0.161-0.075-0.359-0.104-0.529-0.104c-0.323,0-0.61,0.36-0.865,0.515c-0.01,0.006-0.016,0.013-0.018,0.024
	c-0.01,0.068,0.025,0.159,0.078,0.254c-0.091,0.12-0.188,0.245-0.319,0.313c-0.161,0.085-0.352,0.113-0.521,0.176l-0.177,0.068
	l0.104-0.158c0.343-0.479,0.619-1.042,0.816-1.593c0.079-0.217,0.186-0.359,0.111-0.598c-0.017-0.053-0.098-0.092-0.161-0.103
	c-0.312-0.056-0.328-0.181-0.333-0.229c-0.02-0.182,0.467-0.519,0.568-0.669c0.092-0.134,0.154-0.279,0.187-0.429
	c0.073,0.088,0.232,0.145,0.317,0.153c0.013,0.001,0.027,0.002,0.04,0.002c0.171,0.004,0.333-0.085,0.501-0.095
	c0.33-0.021,0.65-0.085,0.977-0.128c0.24-0.031,0.496-0.019,0.729-0.091c0.481-0.147,1.007,0.033,1.481-0.149l0.022-0.009
	c0.141-0.054,0.202-0.101,0.28-0.229c0.071-0.116,0.157-0.209,0.183-0.349c0.064-0.373-0.596-0.552-0.868-0.575
	c-0.015-0.001-0.03-0.002-0.048-0.002c-0.23,0-0.455,0.048-0.682,0.098c-0.051-0.137-0.196-0.239-0.33-0.271
	c-0.234-0.057-0.484-0.01-0.72-0.054c-0.202-0.038-0.345,0.023-0.538,0.077c-0.203,0.056-0.203,0.458-0.203,0.63v0.181
	c-0.169,0.063-0.332,0.141-0.504,0.2c-0.217,0.074-0.442,0.119-0.663,0.181c-0.011-0.039-0.016-0.076-0.033-0.115
	c-0.086-0.184-0.191-0.306-0.451-0.522c-0.071-0.06-0.177-0.09-0.313-0.09c-0.196,0-0.384,0.064-0.39,0.065
	c-0.447,0.128-0.518,1.135-0.817,1.479c-0.212,0.243-0.49,0.49-0.529,0.829c-0.025,0.223,0.131,0.366,0.251,0.529
	c0.227,0.311,0.189,0.732,0.418,1.037c0.066,0.089,0.278,0.147,0.278,0.268c0,0.063-0.029,0.132-0.07,0.228l-0.027,0.064
	c-0.064,0.155-0.181,0.288-0.262,0.433c-0.087,0.155-0.177,0.308-0.301,0.437c-0.179,0.187-0.384,0.371-0.429,0.638
	c-0.047,0.267,0.562,0.578,0.764,0.586c0.185,0.008,0.375-0.029,0.56-0.031c0.142-0.001,0.283-0.001,0.425,0.001
	C128.003,17.058,128.142,17.095,128.266,17.061 M131.043,14.449c0.002,0,0.069-0.011,0.069-0.011c0,0.119,0.026,0.262-0.027,0.372
	c-0.01,0.02-0.024,0.035-0.039,0.051c-0.105,0.035-0.207,0.089-0.31,0.125c-0.13,0.046-0.267,0.071-0.402,0.089
	c-0.023-0.179-0.05-0.357-0.11-0.515C130.445,14.63,130.828,14.485,131.043,14.449"/>
<path fill="#FFFFFF" d="M129.83,12.738c0.343,0,0.691-0.038,1.031-0.077c0.337-0.037,0.62-0.182,0.871-0.405
	c0.093-0.085,0.187-0.187,0.186-0.323c0-0.075-0.061-0.236-0.16-0.236c-0.007,0-0.014,0-0.021,0.002
	c-0.325,0.076-0.59,0.17-0.933,0.177c-0.352,0.006-0.704-0.032-1.053,0.032c-0.113,0.021-0.22,0.109-0.303,0.185
	c-0.054,0.05-0.22,0.169-0.229,0.239c-0.019,0.172,0.123,0.295,0.264,0.353C129.567,12.719,129.688,12.738,129.83,12.738"/>
<path fill="#FFFFFF" d="M128.978,13.594c0.018,0.127,0.155,0.239,0.274,0.269c0.027,0.006,0.054,0.01,0.08,0.01
	c0.122,0.001,0.245-0.056,0.364-0.078c0.561-0.104,1.041-0.06,1.594-0.292c0.304-0.127,0.746-0.306,0.774-0.689
	c0.005-0.074-0.008-0.117-0.02-0.13c-0.001,0-0.02-0.019-0.106-0.019c-0.137,0-0.32,0.045-0.37,0.064
	c-0.375,0.138-0.776,0.235-1.177,0.243c-0.232,0.004-0.464-0.032-0.695,0.002c-0.177,0.025-0.429,0.102-0.545,0.248
	C129.078,13.313,128.96,13.468,128.978,13.594"/>
<path fill="#FFFFFF" d="M136.233,14.56c-0.05-0.03-0.104-0.046-0.158-0.061c-0.048-0.013-0.092-0.025-0.129-0.048
	c-0.056-0.034-0.067-0.077-0.077-0.109c-0.006-0.024-0.01-0.04-0.03-0.059c0,0-0.005-0.002-0.017-0.002
	c-0.104,0-0.345,0.116-0.457,0.195c-0.097,0.067-0.251,0.108-0.374,0.141c-0.061,0.016-0.119,0.03-0.143,0.043
	c-0.351,0.174-0.036-0.467,0.011-0.563c0.119-0.237,0.265-0.458,0.395-0.689c0.272-0.479,0.264-1.099,0.577-1.546
	c0.089-0.128,0.028-0.283-0.018-0.363c-0.169-0.305-0.461-0.246-0.758-0.211c-0.673,0.081-0.304,1.098-0.862,1.256
	c-0.132,0.038-0.241-0.017-0.364-0.05c0.057-0.111,0.108-0.223,0.155-0.338c0.178-0.452,0.546-0.681,0.849-1.038
	c0.192-0.228,0.442-0.559,0.5-0.858c0.059-0.303-0.125-0.354-0.379-0.463c-0.246-0.105-0.361-0.11-0.575,0.068
	c-0.087,0.072-0.187,0.129-0.34,0.215c-0.208,0.116-0.329,0.614-0.461,0.815c-0.18,0.27-0.394,0.516-0.595,0.77
	c-0.308,0.391-0.682,0.933-0.192,1.35c0.086,0.074,0.218,0.054,0.322,0.085c0.096,0.029,0.188,0.071,0.278,0.117l0.063,0.033
	l-0.043,0.057c-0.012,0.015-0.031,0.039-0.057,0.067c-0.133,0.15-0.241,0.326-0.34,0.5c-0.147,0.259-0.205,0.614-0.307,0.899
	c-0.096,0.272-0.253,0.622-0.181,0.917c0.025,0.102,0.117,0.245,0.221,0.281c0.279,0.099,0.696,0.081,0.997,0.142
	c0.403,0.082,0.827,0.17,1.239,0.11c0.104-0.015,0.208-0.051,0.319-0.125c0.312-0.206,0.527-0.548,0.749-0.843
	c0.12-0.162,0.198-0.321,0.236-0.486C136.325,14.617,136.313,14.609,136.233,14.56"/>
<path fill="#FFFFFF" d="M134.627,19.074c-0.454-0.211-0.871-0.344-1.378-0.274c-0.275,0.038-0.55,0.175-0.818,0.251
	c-0.317,0.09-0.639,0.168-0.956,0.264c-0.359,0.107-1.202,0.281-1.256,0.295c-0.033,0.008-0.201,0.095-0.23,0.055
	c-0.021-0.031-0.043-0.069-0.045-0.104c-0.001-0.023,0.003-0.051,0.006-0.08c0.005-0.048,0.008-0.089,0.002-0.124
	c0.031-0.012,0.061-0.023,0.092-0.035c0.474-0.185,1.034-0.355,1.533-0.449c0.186-0.036,0.346-0.053,0.532-0.072
	c0.18-0.009,0.338,0.004,0.497-0.043c0.106-0.032,0.158-0.101,0.248-0.159c0.079-0.051,0.166-0.084,0.236-0.148
	c0.23-0.214,0.41-0.417,0.677-0.594c0.169-0.112,0.561-0.459,0.583-0.562c0.087-0.376-0.322-0.486-0.55-0.625
	c-0.581-0.358-1.338-0.509-2.007-0.58c-0.012-0.001-0.024-0.002-0.037-0.002c-0.615,0-1.176,0.293-1.735,0.512
	c-0.544,0.211-1.105,0.377-1.651,0.586c-0.251,0.095-0.713,0.282-0.853,0.53c-0.08,0.139-0.011,0.299,0.065,0.424
	c0.061,0.094,0.277,0.364,0.404,0.382c0.313,0.045,0.76,0.009,1.073-0.19c0.446-0.28,0.723-0.584,1.263-0.713
	c0.478-0.115,0.974-0.122,1.454-0.224c0.1-0.021,0.353-0.118,0.418,0.003c0.031,0.056,0.011,0.189-0.023,0.321
	c-0.464,0.079-0.931,0.166-1.394,0.252c-0.654,0.121-1.235,0.44-1.814,0.69c-0.218,0.094-0.447,0.172-0.674,0.243
	c-0.027,0.008-0.166,0.031-0.214,0.052c-0.005,0.002-0.01,0.003-0.012,0.004c-0.066,0.042-0.125,0.083-0.125,0.269
	c0,0.059,0.048,0.138,0.093,0.212c0.205,0.341,0.067,0.753,0.26,1.088c0.082,0.141,0.354,0.213,0.448,0.229
	c0.762,0.126,1.728-0.154,2.485-0.255c0.572-0.077,1.144-0.268,1.725-0.268c0.215,0,0.429-0.015,0.342,0.28
	c-0.159,0.531-0.479,1.114-0.727,1.61c-0.394,0.786-2.34,0.812-3.051,0.625c-0.322-0.085-0.621-0.235-0.941-0.325
	c-0.152-0.043-0.665-0.184-0.792-0.013c-0.041,0.057,0.002,0.2,0.011,0.264c0.039,0.27,0.336,0.497,0.525,0.676
	c0.881,0.832,2.205,1.063,3.371,1.153c0.444,0.035,0.799,0.07,1.106,0c0.33-0.074,0.607-0.27,0.883-0.717
	c0.408-0.663,0.613-1.355,0.945-2.053c0.191-0.402,0.683-0.788,0.743-1.225c0.043-0.296,0.05-0.655-0.084-0.932
	C135.156,19.318,134.872,19.188,134.627,19.074"/>
<path fill="#FFFFFF" d="M157.765,16.481c-0.126,0-0.218,0.083-0.315,0.173c-0.04,0.036-0.081,0.074-0.125,0.104
	c-0.164,0.118-0.248,0.329-0.391,0.471c-0.176,0.175-0.396,0.3-0.574,0.472c-0.181,0.174-0.324,0.481-0.57,0.571
	c-0.251,0.092-0.555-0.088-0.76-0.216c-0.213-0.133-0.368-0.327-0.499-0.538c-0.355-0.57-0.725-1.133-0.497-1.838
	c0.132-0.409,0.432-0.783,0.392-1.234c-0.019-0.206-0.416-0.307-0.569-0.398c-0.222-0.13-0.466-0.333-0.736-0.333
	c-0.15,0-0.396,0.061-0.57,0.14c-0.115,0.052-0.237,0.104-0.359,0.152c0.053-0.108,0.107-0.215,0.153-0.328
	c0.044-0.109,0.19-0.323,0.201-0.463c0.28-0.005,0.558-0.014,0.839-0.034c0.559-0.041,1.144-0.096,1.694-0.198
	c0.37-0.069,0.503-0.229,0.381-0.609c-0.107-0.33-0.335-0.661-0.672-0.794c-0.618-0.243-1.318-0.203-2.009-0.094
	c0.268-0.171,0.494-0.397,0.636-0.728c0.405-0.955-0.957-1.221-1.582-1.076c-0.266,0.061-0.206,0.51-0.288,0.705
	c-0.129,0.306-0.441,0.5-0.676,0.72c-0.22,0.204-0.399,0.445-0.627,0.641c-0.168,0.144-0.388,0.237-0.601,0.328
	c-0.567,0.124-1.132,0.258-1.693,0.405c-0.676,0.176-1.345,0.446-2.053,0.449c-0.521,0.001-2.582-0.538-2.181,0.659
	c0.108,0.324,0.609,0.542,0.906,0.654c0.076,0.028,0.149,0.047,0.225,0.059c0.303,0.05,0.598-0.02,0.908-0.085
	c0.118-0.025,0.235-0.045,0.354-0.067c0.016,0.1,0.037,0.238,0.054,0.386c-0.193,0.04-0.387,0.079-0.578,0.129
	c-0.339,0.092-0.675,0.225-1.028,0.237c-0.207,0.006-0.386-0.1-0.589-0.1c-0.016,0-0.03,0-0.046,0.002
	c-0.141,0.01-0.37,0.191-0.449,0.263c-0.285,0.256-0.541,0.933-0.265,1.291c0.082,0.104,0.215,0.142,0.361,0.147
	c0.209,0.008,0.444-0.05,0.596-0.081c0.578-0.114,1.124-0.376,1.709-0.457c0.087-0.012,0.171-0.029,0.258-0.046
	c-0.015,0.153-0.028,0.303-0.042,0.428c-0.456,0.158-0.923,0.273-1.393,0.377c-0.486,0.107-0.953,0.296-1.436,0.395
	c-0.272,0.056-0.557,0.071-0.836,0.067c-0.24-0.003-0.452-0.072-0.662,0.081c-0.175,0.125-0.335,0.315-0.403,0.52
	c-0.089,0.268,0.15,0.979,0.465,1.05c0.011,0.003,0.029,0.005,0.064,0.005c0.801,0,1.53-0.521,2.26-0.747
	c0.578-0.179,1.175-0.281,1.772-0.378c-0.039,0.277-0.078,0.483-0.123,0.562c-0.1,0.177-0.232,0.403-0.455,0.441
	c-0.21,0.036-0.315-0.158-0.489-0.237c-0.028-0.013-0.063-0.02-0.106-0.02c-0.278,0-1.222,0.283-1.057,0.702
	c0.049,0.125,0.147,0.225,0.21,0.344c0.298,0.574,0.853,0.68,1.425,0.871c0.184,0.062,0.509,0.319,0.762,0.346
	c-0.221,0.038-0.443,0.066-0.668,0.081c-0.607,0.039-1.505-0.361-2.045-0.003c-0.486,0.323-0.175,1.289,0.392,1.356
	c0.091,0.01,0.183,0.015,0.274,0.015c1.071,0,2.156-0.306,3.229-0.371c0.044-0.003,0.09-0.004,0.135-0.006
	c-0.008,0.01-0.015,0.017-0.022,0.027c-0.319,0.53-0.511,0.938-1.13,1.167c-0.388,0.142-1.251,0.198-1.378,0.692
	c-0.12,0.471,0.458,0.785,0.874,0.906c0.061,0.017,0.116,0.031,0.168,0.04c0.872,0.157,1.702-0.347,2.542-0.501
	c0.765-0.141,1.538-0.199,2.307-0.331c0.189-0.033,0.551-0.136,0.767-0.198c0.196,0.39,0.725,0.801,1.113,0.892
	c0.03,0.007,0.065,0.01,0.102,0.01c0.402,0,0.939-0.288,1.153-0.624c0.12-0.187,0.312-0.656,0.148-0.857
	c-0.384-0.481-0.846-1.051-1.12-1.601c-0.08-0.159-0.198-0.267-0.335-0.343c0.61,0.013,1.224-0.088,1.532-0.702
	c0.064-0.129,0.157-0.312,0.188-0.487c0.207,0.118,0.444,0.18,0.632,0.337c0.179,0.152,0.323,0.338,0.573,0.357
	c0.056,0.005,0.11,0.005,0.167,0.003c0.359-0.021,0.725-0.191,0.968-0.461c0.216-0.242,0.364-0.536,0.57-0.789
	c0.278-0.339,0.476-0.698,0.662-1.096c0.224-0.475,0.726-1.331,0.607-1.473C158.322,16.625,157.981,16.481,157.765,16.481
	 M152.072,15.377c0.159-0.007,0.394-0.075,0.409,0.122c0.023,0.304,0.057,0.608,0.112,0.907c-0.124-0.017-0.271-0.006-0.386-0.059
	c-0.201-0.09-0.382-0.232-0.548-0.375c-0.09-0.077-0.209-0.114-0.345-0.128c0.026-0.081,0.047-0.163,0.077-0.243
	c0.007-0.021,0.019-0.041,0.026-0.063C151.629,15.458,151.848,15.388,152.072,15.377 M150.614,22.155
	c-0.587,0.083-1.252,0.667-1.857,0.43c-0.246-0.097-0.108-0.226,0.029-0.415c0.133-0.182,0.294-0.357,0.397-0.56
	c0.126-0.038,0.253-0.08,0.376-0.136c0.506-0.231,0.981-0.359,1.474-0.413c0.18,0.31,0.245,0.628,0.271,0.952
	C151.152,22.048,150.734,22.139,150.614,22.155 M153.341,19.43c-0.451-0.057-0.803-0.073-1.267-0.04
	c-0.576,0.043-1.136,0.216-1.711,0.268c-1.411,0.128-2.735,0.765-4.124,1.036c0.018-0.01,0.037-0.011,0.054-0.026
	c0.239-0.219,0.52-0.479,0.681-0.762c0.133-0.234,0.076-0.474,0.109-0.73c0.036-0.28,0.088-0.557,0.145-0.833
	c0.067-0.33,0.127-0.649,0.178-0.968c0.239-0.081,0.479-0.163,0.724-0.229c0.369-0.101,0.823-0.245,0.486-0.691
	c-0.022-0.028-0.043-0.056-0.062-0.083c-0.206-0.31-0.662-0.362-0.987-0.362c-0.019,0-0.035-0.002-0.054-0.002
	c0-0.059,0.004-0.115,0.001-0.175c-0.003-0.083,0.006-0.165,0.012-0.249c0.03-0.007,0.062-0.016,0.093-0.022
	c0.205-0.047,0.489-0.014,0.645-0.188c0.122-0.137,0.115-0.352,0.115-0.522c0-0.188-0.213-0.637-0.416-0.669
	c-0.011-0.002-0.021-0.002-0.032-0.002c-0.055,0-0.128,0.014-0.208,0.035c0.001-0.013,0.004-0.025,0.005-0.037
	c0.007-0.113-0.123-0.202-0.197-0.273c-0.013-0.013-0.023-0.023-0.035-0.036c0.86-0.19,1.714-0.407,2.586-0.541
	c0.352-0.055,0.702-0.08,1.053-0.093c-0.038,0.415-0.374,0.814-0.613,1.133c-0.15,0.001-0.301,0.001-0.451,0.005
	c-0.351,0.007-0.966,0.016-1.013,0.485c-0.018,0.178,0.233,0.31,0.345,0.415c0.118,0.112,0.223,0.245,0.354,0.343
	c-0.003,0.004-0.006,0.01-0.007,0.016c-0.105,0.31-0.151,0.494-0.192,0.657l-0.006,0.022c-0.146,0.589-0.809,0.959-1.097,1.469
	c-0.065,0.115-0.22,0.296-0.263,0.455c-0.088,0.005-0.179,0.006-0.257,0.02c-0.235,0.039-0.401,0.142-0.509,0.534
	c-0.058,0.212-0.061,0.241,0.041,0.542c0.076,0.236,0.152,0.358,0.282,0.41c0.327,0.13,0.828-0.045,1.151-0.126
	c0.409-0.104,0.813-0.231,1.231-0.297c0.611-0.095,1.292-0.034,1.848-0.351c0.024-0.012,0.047-0.025,0.069-0.037
	c0.127-0.068,0.26-0.14,0.408-0.338c0.115-0.153,0.209-0.386,0.09-0.569c-0.091-0.14-0.265-0.048-0.422-0.043
	c-0.182,0.004-0.796,0.007-0.796,0.007c-0.054,0-0.108-0.001-0.167-0.003c-0.23-0.006-0.461,0.004-0.689,0.02
	c0.003-0.151,0.11-0.31,0.188-0.441c0.064-0.113,0.127-0.228,0.187-0.345c0.133,0.033,0.341,0.086,0.438,0.115
	c0.063,0.017,0.12,0.053,0.183,0.091c0.141,0.085,0.271,0.112,0.404,0.113c0.201,0.001,0.401-0.062,0.63-0.083
	c0.12-0.011,0.277-0.053,0.397-0.088c0.213,0.436,0.523,0.832,0.75,1.258c0.106,0.203,0.198,0.413,0.268,0.632
	c0.016,0.052,0.03,0.104,0.045,0.157C153.756,19.394,153.517,19.453,153.341,19.43"/>
<path fill="#FFFFFF" d="M166.95,13.31c0.234-0.017,0.476-0.083,0.628-0.131c0.606-0.192,1.251-0.363,1.823-0.649
	c0.53-0.265,0.712-0.841,0.607-1.399c-0.063-0.339-0.306-0.342-0.56-0.517c-0.362-0.249-0.566-0.222-0.964-0.039
	c-0.265,0.122-0.473,0.268-0.673,0.408c-0.202,0.142-0.764,0.578-1.109,0.864c-0.335,0.274-0.372,0.521-0.412,0.969
	C166.25,13.25,166.59,13.336,166.95,13.31"/>
<path fill="#FFFFFF" d="M172.933,19.335c-0.05-0.328,0.069-0.662,0.113-0.997c0.097,0.059,0.193,0.117,0.27,0.176
	c0.213,0.164,0.496,0.429,0.788,0.415c0.025-0.001,0.05-0.004,0.073-0.01c0.614-0.132,0.844-0.833,0.56-1.323
	c-0.242-0.416-0.69-0.729-1.099-0.968c-0.103-0.06-0.484-0.395-0.654-0.546c-0.001-0.017-0.001-0.033-0.002-0.048
	c0.24-0.051,0.481-0.093,0.726-0.106c0.276-0.014,0.576,0.037,0.837-0.083c0.29-0.131,0.502-0.503,0.705-0.742l0.015-0.018
	c0.156-0.182,0.081-0.322,0.081-0.322c-0.106-0.146-0.196-0.271-0.402-0.425c-0.541-0.405-1.422-0.186-2.154,0.077
	c-0.01-0.309-0.001-0.614,0.024-0.92c0.412-0.159,0.826-0.307,1.236-0.471c0.395-0.158,0.466-0.41,0.471-0.808
	c0.003-0.136-0.018-0.209-0.123-0.275c-0.42-0.262-0.937-0.12-1.384-0.073c0.004-0.028,0.008-0.056,0.013-0.085
	c0.05-0.376,0.047-0.797-0.377-0.946c-0.026-0.008-0.05-0.017-0.071-0.025c-0.253-0.101-0.998-0.207-1.199,0.012
	c-0.031,0.035-0.059,0.059-0.08,0.081c-0.09,0.086-0.106,0.102-0.097,0.412c0.035,1.048,0.086,2.083-0.041,3.132
	c-0.015,0.121-0.018,0.234-0.021,0.342c-0.001,0.085-0.004,0.167-0.012,0.246c-0.64,0.219-1.306,0.404-1.951,0.441
	c-0.326,0.019-0.544-0.078-0.768,0.185c-0.325,0.377,0.324,0.909,0.611,1.064c0.135,0.073,0.274,0.112,0.417,0.126
	c0.368,0.038,0.755-0.081,1.117-0.188c-0.072,0.121-0.14,0.305-0.18,0.367c-0.125,0.191-0.281,0.36-0.448,0.516
	c-0.332,0.307-0.715,0.552-1.069,0.83c-0.266,0.207-0.814,0.462-1.082,0.79c0.014-0.222,0.03-0.445,0.051-0.666
	c0.06-0.673-0.076-1.346-0.021-2.019c0.025-0.319,0.062-0.553,0.088-0.723c0.004-0.024,0.006-0.04,0.008-0.061
	c0.056-0.064,0.097-0.114,0.12-0.142c0.239-0.292,0.649-0.375,0.899-0.658c0.328-0.371,0.092-1.039-0.063-1.427
	c-0.046-0.111-0.159-0.166-0.351-0.166c-0.468,0-0.979,0.218-1.326,0.522c-0.253,0.222-0.379,0.562-0.646,0.763
	c-0.787,0.591-1.302,1.427-2.019,2.084c-0.514,0.473-1.192,0.819-1.83,1.095c-0.22,0.095-0.775,0.512-0.611,0.807
	c0.232,0.417,1.225,0.415,1.624,0.428c0.049,0.001,0.093,0.003,0.134,0.003c0.127,0,0.217-0.014,0.324-0.082
	c0.735-0.463,1.404-1.054,2.123-1.546c0.015-0.01,0.032-0.024,0.048-0.037c0.249,1.18-0.335,2.211-0.304,3.356
	c0.01,0.402-0.122,0.806-0.053,1.208c0.053,0.312,0.574,0.872,0.837,1.045c0.128,0.084,0.238,0.122,0.335,0.124
	c0.674,0.008,0.646-1.786,0.618-2.241c-0.016-0.256-0.02-0.514-0.018-0.77c0.123,0.111,0.402,0.311,0.574,0.361
	c0.031,0.007,0.06,0.011,0.081,0.009c0.255-0.035,0.444-0.34,0.66-0.461c0.302-0.167,0.593-0.307,0.858-0.542
	c0.177-0.157,0.332-0.28,0.477-0.46c0.12-0.152,0.293-0.242,0.412-0.384c0.028-0.033,0.188-0.303,0.303-0.498
	c-0.028,0.322-0.067,0.643-0.131,0.955c-0.065,0.311-0.265,0.619-0.299,0.93c-0.039,0.357,0.185,0.585,0.423,0.808
	c0.211,0.197,0.409,0.362,0.611,0.428c0.245,0.081,0.496,0.019,0.787-0.3C172.869,20.51,173.016,19.871,172.933,19.335"/>
<path fill="#FFFFFF" d="M176.353,14.808c0.076,0.032,0.117,0.049,0.14,0.06c0.015,0.006,0.021,0.01,0.022,0.01
	c0.01,0,0.025,0.001,0.063,0.008c0.021,0.003,0.041,0.005,0.063,0.005c0.173,0,0.378-0.104,0.531-0.152
	c0.316-0.098,0.633-0.199,0.951-0.291c0.266-0.078,0.593-0.217,0.875-0.204c0.096,0.004,0.212,0.074,0.307,0.061
	c0.227-0.035,0.405-0.219,0.529-0.398c0.024-0.036,0.411-0.518,0.218-0.593c-0.438-0.168-0.81-0.392-1.266-0.443
	c-0.253-0.027-0.529,0.133-0.782,0.188c-0.573,0.124-1.164,0.134-1.748,0.17c-0.438,0.026-1.031,0.11-0.938,0.696
	C175.392,14.396,175.968,14.647,176.353,14.808"/>
<path fill="#FFFFFF" d="M181.66,14.974c-0.273-0.162-0.609-0.229-0.923-0.261c-0.325-0.034-0.67-0.087-0.995-0.101
	c-0.341-0.013-0.707,0.061-1.04,0.125c-0.777,0.152-1.519,0.469-2.301,0.594c-0.362,0.058-0.856-0.133-1.146,0.155
	c-0.293,0.292-0.36,0.897-0.385,1.275c-0.021,0.337,0.094,0.492,0.454,0.492c0.447,0,0.895-0.11,1.344-0.175
	c0.064,0.155,0.08,0.31,0.095,0.519c0.009,0.107,0.018,0.228,0.036,0.371c0.134,1.067,0.195,2.071,0.11,3.148
	c-0.029,0.357-0.077,0.436-0.337,0.559c-0.648,0.304-1.358,0.26-2.05,0.208c-0.537-0.04-1.067-0.013-1.597,0.089
	c-0.414,0.081-0.639,0.336-0.235,0.646c0.195,0.149,0.459,0.168,0.658,0.33c0.327,0.267,0.569,0.43,0.977,0.557
	c0.418,0.131,1.919,0.548,2.256,0.603c0.314,0.051,0.658,0.119,1.261,0.138c0.294,0.008,0.68-0.486,0.734-0.788
	c0.027-0.151-0.004-0.53-0.041-1.187c-0.055-0.972-0.037-1.957,0.018-2.928c0.04-0.739,0.048-1.542,0.286-2.247
	c0.051-0.149,0.097-0.291,0.095-0.401c0.179-0.032,0.36-0.058,0.547-0.069c0.602-0.035,1.226-0.002,1.813-0.112
	c0.195-0.037,0.483-0.093,0.737-0.164c0.258-0.071,0.312-0.101,0.303-0.257C182.313,15.662,182.031,15.192,181.66,14.974"/>
<path fill="#FFFFFF" d="M203.199,22.288c-0.655-0.443-1.465-0.519-2.155-0.888c-1.035-0.553-2.079-0.955-3.025-1.674
	c-0.771-0.586-1.255-1.468-1.82-2.235c-0.359-0.487-0.702-0.985-1.043-1.486c0.906-0.036,1.806-0.045,2.722-0.191
	c0.415-0.066,1.262-0.002,1.585-0.299c0.356-0.326,0.328-1.011,0.277-1.444c-0.06-0.5-1.133-0.596-1.496-0.625
	c-0.702-0.056-1.412,0.074-2.084,0.27c-0.48,0.14-0.947,0.318-1.415,0.499c0.147-1.011,0.271-2.025,0.423-3.035
	c0.048-0.318,0.149-0.629,0.032-0.945c-0.094-0.253-0.318-0.516-0.613-0.516c-0.387,0-1.125,0.265-0.992,0.758
	c0.02,0.077,0.042,0.163,0.053,0.261c0.088,0.871,0.086,1.58-0.148,2.433c-0.143,0.519-0.289,1.09-0.436,1.65
	c-0.293,0.088-0.589,0.165-0.892,0.218c-0.94,0.167-1.885,0.083-2.831,0.068c-0.487-0.009-1.502-0.012-1.47,0.71
	c0.019,0.436,0.166,1.008,0.523,1.187c0.153,0.076,0.314,0.12,0.479,0.137c0.837,0.087,1.804-0.475,2.559-0.652
	c0.413-0.097,0.829-0.176,1.247-0.243c-0.247,0.928-0.478,1.854-1.006,2.676c-0.654,1.018-1.536,1.893-2.53,2.581
	c-0.364,0.253-1.828,1.044-1.77,1.671c0.041,0.452-0.244,1.507,0.497,1.507c0.106,0,0.23-0.016,0.358-0.047
	c1.992-0.478,3.423-1.926,4.411-3.655c0.351-0.613,0.78-1.25,1.013-1.919c0.144-0.41,0.429-1.361,0.592-1.951
	c0.516,0.499,0.779,1.167,1.11,1.795c0.229,0.437,0.542,0.506,0.771,0.943c0.199,0.383,0.372,0.896,0.529,1.301
	c0.266,0.683,0.605,1.439,1.248,1.848c0.722,0.457,1.832,0.658,2.672,0.683c0.069,0.002,0.138,0.002,0.207,0.001
	c0.248-0.004,0.496-0.03,0.741-0.067c0.223-0.034,0.441-0.091,0.664-0.123c0.401-0.058,0.629-0.079,0.941-0.119
	c0.224-0.029,0.366-0.122,0.47-0.354C203.734,22.71,203.415,22.434,203.199,22.288"/>
<path fill="#FFFFFF" d="M211.146,16.756c0.016-0.185,0.003-0.313-0.029-0.402c0.246-0.08,0.542-0.25,0.611-0.283
	c0.188-0.089,0.365-0.168,0.425-0.387c0.118-0.432,0.135-0.858,0.122-1.303c-0.012-0.44-0.285-0.815-0.514-1.17
	c-0.173-0.271-0.321-0.567-0.561-0.789c-0.214-0.198-0.503-0.166-0.765-0.115c-0.125,0.024-0.523,0.085-0.516,0.274
	c0.032,0.778-0.25,1.785,0.208,2.472c0.242,0.362,0.579,0.685,0.628,1.135c-0.184,0.029-0.411,0.121-0.638,0.168
	c-0.82,0.173-1.469,1.082-2.115,1.562c-0.423,0.314-0.456,0.933-0.14,1.341c0.094,0.121,0.205,0.192,0.329,0.225
	c0.669,0.18,1.693-0.758,2.061-1.114C210.695,17.941,211.089,17.387,211.146,16.756"/>
<path fill="#FFFFFF" d="M223.116,15.063c-0.26-0.1-1.999-0.276-2.621-0.322c0.122-0.292,0.224-0.589,0.256-0.755
	c0.064-0.341,0.19-0.712,0.273-1.046c0.09-0.357,0.11-0.727,0.191-1.086c0.06-0.272,0.163-0.527,0.199-0.805
	c0.043-0.324-0.095-0.426-0.303-0.58c-0.07-0.052-0.142-0.105-0.215-0.173c-0.249-0.23-0.479-0.334-0.742-0.334
	c-0.727,0-1.43,0.076-2.133,0.267c-0.259,0.071-0.554,0.285-0.442,0.591c0.069,0.185,0.221,0.335,0.259,0.346
	c0.013,0.003,0.049,0.007,0.141,0.007c0.288,0,1.417-0.308,1.512,0.098c0.021,0.087,0.014,0.189-0.001,0.295
	c-0.016,0-0.032,0-0.044,0.004c-0.473,0.106-1.347-0.112-1.655,0.366c-0.069,0.106-0.091,0.189-0.069,0.255
	c0.036,0.112,0.213,0.186,0.391,0.253c0.155,0.058,0.304,0.087,0.453,0.087c0.247,0,0.488-0.06,0.731-0.1
	c-0.035,0.168-0.073,0.334-0.111,0.501c-0.352,0.09-0.759,0.048-1.107,0.067c-0.205,0.012-0.297,0.016-0.386,0.225
	c-0.143,0.341-0.024,0.542,0.213,0.758c0.226,0.206,0.45,0.231,0.619,0.231c0.078,0,0.158,0.005,0.236,0.003
	c-0.026,0.078-0.049,0.156-0.066,0.235c-0.018,0.082-0.078,0.171-0.155,0.258c-0.377,0.021-0.724,0.066-1.052,0.124
	c0-0.042-0.001-0.082-0.002-0.12c-0.014-0.341-0.223-0.619-0.437-0.869c-0.031-0.035-0.118-0.11-0.237-0.204
	c0.148-0.214,0.271-0.493,0.315-0.625c0.071-0.215,0.002-0.369-0.125-0.486c0.218-0.104,0.391-0.337,0.397-0.482
	c0.009-0.266-0.423-0.557-0.578-0.738c-0.025-0.031-0.049-0.055-0.073-0.082c0.33-0.288,0.579-0.65,0.528-1.126
	c-0.006-0.071-0.025-0.089-0.029-0.092c-0.261-0.21-0.908-0.712-1.248-0.495c-0.176,0.114-0.245,0.322-0.32,0.541
	c-0.038,0.114-0.076,0.232-0.134,0.344c-0.035,0.071-0.083,0.148-0.132,0.227c-0.427-0.011-0.838,0.167-1.252,0.248
	c-0.016-0.168-0.056-0.329-0.145-0.469c-0.207-0.33-0.443-0.504-0.742-0.551c-0.078-0.012-0.155-0.018-0.229-0.018
	c-0.197,0-0.357,0.042-0.465,0.124c-0.145,0.11-0.216,0.338-0.323,0.685l-0.051,0.159c-0.163,0.508,0.147,0.957,0.181,1.459
	c0.029,0.438,0.006,0.882,0.093,1.316c0.073,0.373,0.145,0.743,0.181,1.123c0.007,0.073,0.012,0.704,0.004,1.026
	c-0.01,0-0.019,0-0.031,0c-0.479-0.048-0.688,0.648-0.688,0.653c0.071,0.269,0.797,0.357,1.019,0.385
	c0.531,0.066,1.063-0.024,1.583-0.127c1.005-0.203,1.996-0.613,3.021-0.682c1.071-0.072,2.138,0.127,3.208,0.135
	c0.189,0.002,0.55,0.059,0.565,0.062l0.067,0.011l-0.02,0.065c-0.153,0.52-1.224,1.211-0.525,1.692
	c0.099,0.068,0.206,0.172,0.33,0.191c0.274,0.04,1.306-0.407,1.816-0.771c0.488-0.349,0.999-0.684,1.302-1.221
	C224.631,15.558,223.52,15.218,223.116,15.063 M213.967,14.278c-0.017-0.415-0.019-0.829-0.004-1.244
	c0,0.029,0.004,0.057,0.017,0.082c0.068,0.141,0.335,0.152,0.46,0.227c0.162,0.096,0.288,0.241,0.402,0.392
	C214.659,13.897,214.181,14.163,213.967,14.278 M215.509,12.848c-0.472-0.151-0.916-0.161-1.392-0.039
	c-0.084,0.021-0.146,0.115-0.154,0.207c0.006-0.147,0.016-0.294,0.025-0.442c0.36-0.03,0.765-0.219,1.079-0.355
	c0.152-0.065,0.297-0.141,0.444-0.215c0.055,0.058,0.111,0.118,0.167,0.178c0.072,0.077,0.141,0.149,0.203,0.212
	c-0.125,0.125-0.217,0.292-0.284,0.415c-0.014,0.023-0.024,0.041-0.034,0.062C215.545,12.863,215.524,12.853,215.509,12.848
	 M214.349,11.181c0.021,0.017,0.043,0.036,0.067,0.056c0.082,0.069,0.204,0.135,0.328,0.2c-0.02,0.018-0.039,0.04-0.059,0.056
	c-0.2,0.175-0.452,0.32-0.628,0.42c0.052-0.306,0.121-0.642,0.107-0.955C214.192,11.049,214.251,11.1,214.349,11.181 M214.08,15.629
	c0.001-0.021,0.001-0.041,0.001-0.066c-0.008-0.138-0.029-0.272-0.05-0.408c0.122,0.046,0.256,0.079,0.36,0.092
	c0.068,0.01,0.123,0.012,0.154,0.005c0.309-0.06,0.559-0.301,0.838-0.433c0.058-0.027,0.136-0.076,0.221-0.134
	c0.02,0.024,0.04,0.048,0.061,0.073c0.13,0.159,0.26,0.317,0.364,0.423C215.417,15.35,214.801,15.523,214.08,15.629"/>
<path fill="#FFFFFF" d="M221.146,18.441c-0.199,0-0.496,0.081-0.756,0.15c-0.563,0.153-1.103,0.135-1.681,0.171
	c-0.206,0.013-0.412,0.042-0.616,0.074c0.032-0.03,0.064-0.06,0.096-0.093c0.358-0.373,0.783-0.668,1.216-0.948
	c0.176-0.113,0.517-0.234,0.505-0.484c-0.009-0.169-0.18-0.531-0.534-0.801c-0.372-0.284-0.959-0.225-1.4-0.203
	c-0.622,0.032-1.225,0.191-1.822,0.354c-1.105,0.301-2.202,0.594-3.337,0.774c-0.291,0.045-0.709,0.091-0.924,0.316
	c-0.143,0.15,0.006,0.362,0.006,0.362c0.242,0.391,0.932,0.558,1.309,0.577c0.753,0.038,1.483-0.356,2.152-0.651
	c0.243-0.106,2.226-1.152,2.25-0.603c0.011,0.262-0.259,0.778-0.462,0.943c-0.031,0.025-0.072,0.041-0.112,0.057
	c-0.19-0.18-0.416-0.33-0.671-0.37c-0.217-0.035-0.643,0.047-0.695,0.322c-0.015,0.073,0.041,0.142,0.105,0.22
	c0.011,0.014,0.022,0.029,0.034,0.044c0.121,0.155,0.187,0.338,0.251,0.531c-1.076,0.14-1.828,0.328-2.95,0.609
	c-0.316,0.08-1.03,0.181-1.355,0.172c-0.317-0.008-0.901-0.137-1.18,0.079c-0.354,0.275-0.484,0.405-0.447,0.681
	c0.025,0.202,0.196,0.251,0.393,0.399c0.171,0.129,0.389,0.259,0.565,0.207c0.44-0.132,1.02-0.237,1.428-0.329
	c0.549-0.123,0.815-0.133,1.375-0.203c0.77-0.098,1.541-0.166,2.313-0.241c-0.006,0.139-0.009,0.26-0.009,0.34
	c0,0.102,0.006,0.205,0.014,0.322c0.013,0.204,0.026,0.457,0.015,0.815c-0.02,0.526-0.063,0.593-0.24,0.788l-0.03,0.033
	c-0.195,0.217-0.586,0.343-1.04,0.473c-0.904,0.258-1.948-0.02-2.875,0.029c-0.146,0.008-0.271,0.014-0.359,0.014
	c-0.189,0-0.244,0.143-0.242,0.179c0.03,0.716,1.143,0.909,1.655,1.133c0.595,0.259,1.199,0.369,1.824,0.527
	c0.135,0.035,0.272,0.07,0.411,0.102c0.876,0.19,1.469-0.093,1.959-0.824c0.323-0.481,0.301-1.033,0.35-1.586
	c0.072-0.82,0.03-1.655-0.014-2.476c0-0.009,0.001-0.02,0.001-0.029c0.929-0.123,1.871-0.275,2.807-0.257
	c0.706,0.013,1.428,0.363,1.975-0.273C222.895,19.292,221.636,18.441,221.146,18.441"/>
<path fill="#FFFFFF" d="M60.711,35.188H59.3l-2.56-3.901c-0.149-0.227-0.254-0.398-0.311-0.514h-0.018
	c0.023,0.219,0.035,0.556,0.035,1.004v3.411h-1.321v-6.207h1.507l2.465,3.779c0.112,0.172,0.217,0.339,0.312,0.506h0.018
	c-0.023-0.145-0.035-0.428-0.035-0.853v-3.433h1.321V35.188z"/>
<path fill="#FFFFFF" d="M66.486,35.19H65.19v-0.638h-0.017c-0.298,0.498-0.738,0.745-1.321,0.745c-0.43,0-0.769-0.121-1.016-0.365
	c-0.247-0.244-0.37-0.57-0.37-0.976c0-0.861,0.509-1.357,1.528-1.489l1.204-0.161c0-0.486-0.263-0.728-0.788-0.728
	c-0.528,0-1.03,0.157-1.507,0.471v-1.029c0.191-0.099,0.452-0.186,0.782-0.26c0.331-0.076,0.632-0.111,0.902-0.111
	c1.265,0,1.897,0.628,1.897,1.891V35.19z M65.199,33.389V33.09l-0.805,0.103c-0.445,0.059-0.667,0.261-0.667,0.604
	c0,0.155,0.054,0.283,0.162,0.383c0.107,0.099,0.254,0.15,0.439,0.15c0.257,0,0.466-0.091,0.628-0.267
	C65.118,33.885,65.199,33.66,65.199,33.389"/>
<path fill="#FFFFFF" d="M71.047,35.14c-0.202,0.104-0.507,0.158-0.914,0.158c-0.964,0-1.446-0.5-1.446-1.502v-2.031h-0.719v-1.008
	h0.719v-0.959l1.364-0.389v1.348h0.997v1.008H70.05v1.794c0,0.461,0.184,0.692,0.55,0.692c0.144,0,0.293-0.042,0.446-0.126V35.14z"
	/>
<path fill="#FFFFFF" d="M73.309,30.056c-0.231,0-0.42-0.07-0.567-0.206c-0.147-0.137-0.221-0.306-0.221-0.507
	c0-0.202,0.074-0.372,0.221-0.502c0.147-0.128,0.336-0.194,0.567-0.194c0.234,0,0.423,0.066,0.569,0.194
	c0.146,0.13,0.219,0.3,0.219,0.502c0,0.209-0.073,0.381-0.219,0.513S73.542,30.056,73.309,30.056 M73.984,35.188h-1.369v-4.432
	h1.369V35.188z"/>
<path fill="#FFFFFF" d="M78.047,35.298c-0.739,0-1.32-0.206-1.743-0.621c-0.423-0.414-0.635-0.976-0.635-1.687
	c0-0.733,0.22-1.306,0.658-1.722c0.438-0.415,1.033-0.619,1.781-0.619c0.736,0,1.313,0.204,1.731,0.619
	c0.419,0.416,0.627,0.963,0.627,1.644c0,0.737-0.215,1.318-0.646,1.746C79.389,35.083,78.798,35.298,78.047,35.298 M78.082,31.696
	c-0.324,0-0.575,0.109-0.754,0.333c-0.179,0.224-0.269,0.537-0.269,0.944c0,0.852,0.344,1.277,1.031,1.277
	c0.655,0,0.982-0.438,0.982-1.313C79.073,32.11,78.742,31.696,78.082,31.696"/>
<path fill="#FFFFFF" d="M86.436,35.188h-1.364v-2.463c0-0.686-0.246-1.029-0.735-1.029c-0.237,0-0.433,0.091-0.585,0.271
	c-0.152,0.184-0.229,0.413-0.229,0.694v2.526h-1.369v-4.432h1.369v0.7h0.017c0.326-0.539,0.801-0.808,1.424-0.808
	c0.981,0,1.472,0.607,1.472,1.826V35.188z"/>
<path fill="#FFFFFF" d="M92.007,35.19h-1.295v-0.638h-0.017c-0.298,0.498-0.737,0.745-1.321,0.745c-0.43,0-0.768-0.121-1.016-0.365
	c-0.247-0.244-0.37-0.57-0.37-0.976c0-0.861,0.509-1.357,1.527-1.489l1.205-0.161c0-0.486-0.263-0.728-0.788-0.728
	c-0.528,0-1.03,0.157-1.507,0.471v-1.029c0.19-0.099,0.451-0.186,0.781-0.26c0.332-0.076,0.632-0.111,0.904-0.111
	c1.265,0,1.897,0.628,1.897,1.891V35.19z M90.721,33.389V33.09l-0.805,0.103c-0.445,0.059-0.667,0.261-0.667,0.604
	c0,0.155,0.054,0.283,0.162,0.383c0.108,0.099,0.255,0.15,0.44,0.15c0.257,0,0.466-0.091,0.627-0.267
	C90.64,33.885,90.721,33.66,90.721,33.389"/>
<rect x="93.888" y="28.626" fill="#FFFFFF" width="1.368" height="6.563"/>
<polygon fill="#FFFFFF" points="104.945,30.12 103.174,30.12 103.174,35.19 101.771,35.19 101.771,30.12 100.009,30.12 
	100.009,28.981 104.945,28.981 "/>
<path fill="#FFFFFF" d="M110.135,35.19h-1.294v-0.638h-0.018c-0.297,0.498-0.738,0.745-1.32,0.745c-0.43,0-0.769-0.121-1.016-0.365
	c-0.246-0.244-0.37-0.57-0.37-0.976c0-0.861,0.51-1.357,1.528-1.489l1.204-0.161c0-0.486-0.261-0.728-0.787-0.728
	c-0.529,0-1.031,0.157-1.508,0.471v-1.029c0.19-0.099,0.451-0.186,0.782-0.26c0.33-0.076,0.631-0.111,0.903-0.111
	c1.263,0,1.896,0.628,1.896,1.891V35.19z M108.849,33.389V33.09l-0.805,0.103c-0.445,0.059-0.667,0.261-0.667,0.604
	c0,0.155,0.054,0.283,0.162,0.383c0.108,0.099,0.255,0.15,0.44,0.15c0.257,0,0.467-0.091,0.628-0.267
	C108.768,33.885,108.849,33.66,108.849,33.389"/>
<path fill="#FFFFFF" d="M112.708,30.056c-0.231,0-0.419-0.07-0.567-0.206c-0.148-0.137-0.221-0.306-0.221-0.507
	c0-0.202,0.073-0.372,0.221-0.502c0.147-0.128,0.335-0.194,0.567-0.194c0.233,0,0.422,0.066,0.57,0.194
	c0.146,0.13,0.219,0.3,0.219,0.502c0,0.209-0.072,0.381-0.219,0.513C113.131,29.987,112.942,30.056,112.708,30.056 M113.385,35.188
	h-1.37v-4.432h1.37V35.188z"/>
<path fill="#FFFFFF" d="M121.756,30.757l-1.277,4.432h-1.438l-0.653-2.597c-0.043-0.172-0.067-0.362-0.074-0.566h-0.026
	c-0.02,0.225-0.049,0.409-0.086,0.55l-0.702,2.613h-1.42l-1.253-4.432h1.396l0.609,2.893c0.03,0.134,0.051,0.3,0.066,0.494h0.024
	c0.016-0.203,0.04-0.374,0.079-0.513l0.761-2.874h1.304l0.685,2.893c0.019,0.072,0.037,0.237,0.062,0.502h0.029
	c0.015-0.167,0.038-0.335,0.069-0.502l0.576-2.893H121.756z"/>
<path fill="#FFFFFF" d="M126.894,35.19h-1.296v-0.638h-0.017c-0.299,0.498-0.737,0.745-1.321,0.745c-0.43,0-0.768-0.121-1.015-0.365
	s-0.371-0.57-0.371-0.976c0-0.861,0.511-1.357,1.529-1.489l1.203-0.161c0-0.486-0.262-0.728-0.787-0.728
	c-0.528,0-1.031,0.157-1.507,0.471v-1.029c0.189-0.099,0.451-0.186,0.781-0.26c0.33-0.076,0.632-0.111,0.902-0.111
	c1.265,0,1.897,0.628,1.897,1.891V35.19z M125.606,33.389V33.09l-0.806,0.103c-0.444,0.059-0.666,0.261-0.666,0.604
	c0,0.155,0.054,0.283,0.162,0.383c0.108,0.099,0.255,0.15,0.44,0.15c0.256,0,0.466-0.091,0.628-0.267
	C125.526,33.885,125.606,33.66,125.606,33.389"/>
<path fill="#FFFFFF" d="M133.057,35.188h-1.364v-2.463c0-0.686-0.246-1.029-0.735-1.029c-0.237,0-0.433,0.091-0.585,0.271
	c-0.153,0.184-0.23,0.413-0.23,0.694v2.526h-1.368v-4.432h1.368v0.7h0.018c0.326-0.539,0.802-0.808,1.425-0.808
	c0.981,0,1.473,0.607,1.473,1.826V35.188z"/>
<path fill="#FFFFFF" d="M143.379,32.5c0,1.866-0.87,2.798-2.608,2.798c-1.685,0-2.527-0.911-2.527-2.731v-3.585h1.402v3.602
	c0,1.004,0.393,1.507,1.178,1.507c0.771,0,1.156-0.484,1.156-1.455v-3.653h1.399V32.5z"/>
<path fill="#FFFFFF" d="M149.677,35.188h-1.364v-2.463c0-0.686-0.245-1.029-0.736-1.029c-0.237,0-0.432,0.091-0.584,0.271
	c-0.153,0.184-0.229,0.413-0.229,0.694v2.526h-1.368v-4.432h1.368v0.7h0.017c0.326-0.539,0.802-0.808,1.425-0.808
	c0.982,0,1.473,0.607,1.473,1.826V35.188z"/>
<path fill="#FFFFFF" d="M152.25,30.056c-0.23,0-0.421-0.07-0.567-0.206c-0.146-0.137-0.222-0.306-0.222-0.507
	c0-0.202,0.075-0.372,0.222-0.502c0.146-0.128,0.337-0.194,0.567-0.194c0.234,0,0.423,0.066,0.569,0.194
	c0.146,0.13,0.219,0.3,0.219,0.502c0,0.209-0.073,0.381-0.219,0.513C152.673,29.987,152.484,30.056,152.25,30.056 M152.926,35.188
	h-1.368v-4.432h1.368V35.188z"/>
<path fill="#FFFFFF" d="M159.098,30.757l-1.65,4.432h-1.559l-1.571-4.432h1.464l0.77,2.731c0.087,0.31,0.138,0.572,0.152,0.789
	h0.019c0.019-0.206,0.072-0.461,0.159-0.763l0.787-2.758H159.098z"/>
<path fill="#FFFFFF" d="M164.464,33.364h-2.892c0.045,0.643,0.451,0.965,1.217,0.965c0.486,0,0.916-0.115,1.285-0.347v0.987
	c-0.41,0.219-0.942,0.328-1.598,0.328c-0.717,0-1.271-0.198-1.667-0.595s-0.593-0.95-0.593-1.661c0-0.735,0.214-1.318,0.641-1.748
	c0.427-0.433,0.952-0.645,1.575-0.645c0.647,0,1.147,0.189,1.5,0.574c0.354,0.384,0.531,0.905,0.531,1.564V33.364z M163.195,32.523
	c0-0.635-0.256-0.953-0.771-0.953c-0.22,0-0.409,0.091-0.569,0.273c-0.16,0.182-0.258,0.406-0.293,0.68H163.195z"/>
<path fill="#FFFFFF" d="M168.97,31.99c-0.165-0.089-0.356-0.135-0.576-0.135c-0.298,0-0.53,0.109-0.698,0.327
	c-0.167,0.219-0.251,0.514-0.251,0.891v2.117h-1.367v-4.434h1.367v0.822h0.018c0.218-0.602,0.606-0.901,1.17-0.901
	c0.144,0,0.257,0.017,0.338,0.052V31.99z"/>
<path fill="#FFFFFF" d="M170.113,35.073v-1.109c0.227,0.136,0.45,0.237,0.675,0.304c0.224,0.065,0.434,0.101,0.634,0.101
	c0.242,0,0.434-0.035,0.574-0.101c0.14-0.066,0.21-0.168,0.21-0.304c0-0.085-0.032-0.157-0.096-0.216
	c-0.063-0.058-0.146-0.109-0.244-0.15c-0.1-0.043-0.209-0.083-0.328-0.118c-0.117-0.035-0.232-0.074-0.342-0.117
	c-0.176-0.066-0.332-0.137-0.466-0.213c-0.135-0.076-0.246-0.165-0.337-0.267s-0.16-0.219-0.209-0.352
	c-0.047-0.134-0.071-0.291-0.071-0.473c0-0.248,0.055-0.461,0.163-0.641c0.107-0.178,0.253-0.325,0.434-0.438
	c0.18-0.113,0.386-0.198,0.618-0.252s0.475-0.078,0.726-0.078c0.196,0,0.396,0.014,0.599,0.043c0.201,0.031,0.399,0.074,0.598,0.132
	v1.057c-0.174-0.1-0.359-0.176-0.558-0.226c-0.197-0.052-0.392-0.076-0.582-0.076c-0.09,0-0.175,0.008-0.253,0.024
	c-0.08,0.015-0.149,0.039-0.211,0.068c-0.06,0.031-0.108,0.068-0.143,0.115c-0.035,0.05-0.052,0.104-0.052,0.164
	c0,0.08,0.026,0.15,0.077,0.208c0.053,0.059,0.12,0.107,0.204,0.149c0.084,0.041,0.177,0.078,0.28,0.111
	c0.102,0.035,0.203,0.068,0.305,0.104c0.182,0.062,0.346,0.132,0.494,0.206c0.146,0.077,0.272,0.163,0.378,0.265
	s0.186,0.219,0.243,0.355c0.056,0.137,0.084,0.298,0.084,0.485c0,0.263-0.058,0.486-0.171,0.674
	c-0.115,0.184-0.266,0.337-0.455,0.455c-0.188,0.115-0.407,0.202-0.654,0.254c-0.245,0.054-0.502,0.08-0.769,0.08
	C170.981,35.298,170.53,35.224,170.113,35.073"/>
<path fill="#FFFFFF" d="M175.797,30.056c-0.231,0-0.42-0.07-0.567-0.206c-0.146-0.137-0.221-0.306-0.221-0.507
	c0-0.202,0.074-0.372,0.221-0.502c0.147-0.128,0.336-0.194,0.567-0.194c0.233,0,0.424,0.066,0.569,0.194
	c0.146,0.13,0.219,0.3,0.219,0.502c0,0.209-0.073,0.381-0.219,0.513S176.03,30.056,175.797,30.056 M176.473,35.188h-1.369v-4.432
	h1.369V35.188z"/>
<path fill="#FFFFFF" d="M181.103,35.14c-0.201,0.104-0.507,0.158-0.913,0.158c-0.964,0-1.447-0.5-1.447-1.502v-2.031h-0.718v-1.008
	h0.718v-0.959l1.364-0.389v1.348h0.996v1.008h-0.996v1.794c0,0.461,0.184,0.692,0.551,0.692c0.144,0,0.293-0.042,0.445-0.126V35.14z
	"/>
<path fill="#FFFFFF" d="M186.895,30.757l-1.802,4.787c-0.433,1.153-1.085,1.729-1.958,1.729c-0.332,0-0.604-0.039-0.817-0.113
	v-1.091c0.181,0.107,0.379,0.161,0.593,0.161c0.353,0,0.597-0.168,0.737-0.498l0.232-0.55l-1.801-4.426h1.516l0.826,2.696
	c0.053,0.167,0.093,0.365,0.122,0.593h0.017c0.026-0.165,0.074-0.361,0.144-0.585l0.836-2.704H186.895z"/>
<path fill="#FFFFFF" d="M193.6,35.298c-0.738,0-1.319-0.206-1.742-0.621c-0.423-0.414-0.635-0.976-0.635-1.687
	c0-0.733,0.22-1.306,0.658-1.722c0.438-0.415,1.032-0.619,1.781-0.619c0.734,0,1.312,0.204,1.731,0.619
	c0.418,0.416,0.627,0.963,0.627,1.644c0,0.737-0.215,1.318-0.647,1.746C194.942,35.083,194.351,35.298,193.6,35.298 M193.635,31.696
	c-0.323,0-0.574,0.109-0.754,0.333c-0.179,0.224-0.268,0.537-0.268,0.944c0,0.852,0.343,1.277,1.03,1.277
	c0.654,0,0.983-0.438,0.983-1.313C194.627,32.11,194.295,31.696,193.635,31.696"/>
<path fill="#FFFFFF" d="M200.6,29.674c-0.177-0.07-0.345-0.104-0.507-0.104c-0.439,0-0.658,0.237-0.658,0.713v0.474h1.014v1.008
	h-1.014v3.424h-1.364v-3.424h-0.746v-1.008h0.746v-0.55c0-0.507,0.164-0.914,0.494-1.222c0.328-0.31,0.776-0.465,1.342-0.465
	c0.277,0,0.509,0.029,0.693,0.087V29.674z"/>
<path fill="#FFFFFF" d="M210.744,35.188h-1.524l-0.441-1.38h-2.209l-0.437,1.38h-1.516l2.259-6.207h1.659L210.744,35.188z
	 M208.457,32.734l-0.666-2.085c-0.05-0.157-0.084-0.344-0.104-0.561h-0.034c-0.015,0.182-0.051,0.361-0.108,0.542l-0.676,2.104
	H208.457z"/>
<path fill="#FFFFFF" d="M215.076,31.99c-0.165-0.089-0.357-0.135-0.576-0.135c-0.297,0-0.53,0.109-0.697,0.327
	c-0.168,0.219-0.251,0.514-0.251,0.891v2.117h-1.369v-4.434h1.369v0.822h0.017c0.217-0.602,0.606-0.901,1.17-0.901
	c0.145,0,0.257,0.017,0.338,0.052V31.99z"/>
<path fill="#FFFFFF" d="M219.19,35.14c-0.201,0.104-0.507,0.158-0.913,0.158c-0.965,0-1.446-0.5-1.446-1.502v-2.031h-0.718v-1.008
	h0.718v-0.959l1.364-0.389v1.348h0.995v1.008h-0.995v1.794c0,0.461,0.184,0.692,0.549,0.692c0.145,0,0.294-0.042,0.446-0.126V35.14z
	"/>
<path fill="#FFFFFF" d="M220.47,35.073v-1.109c0.226,0.136,0.449,0.237,0.674,0.304c0.224,0.065,0.435,0.101,0.635,0.101
	c0.241,0,0.434-0.035,0.573-0.101c0.14-0.066,0.21-0.168,0.21-0.304c0-0.085-0.031-0.157-0.096-0.216
	c-0.063-0.058-0.145-0.109-0.245-0.15c-0.099-0.043-0.208-0.083-0.327-0.118c-0.118-0.035-0.231-0.074-0.341-0.117
	c-0.177-0.066-0.332-0.137-0.466-0.213s-0.247-0.165-0.338-0.267s-0.16-0.219-0.208-0.352c-0.047-0.134-0.071-0.291-0.071-0.473
	c0-0.248,0.054-0.461,0.162-0.641c0.108-0.178,0.254-0.325,0.434-0.438c0.181-0.113,0.387-0.198,0.618-0.252
	c0.232-0.054,0.476-0.078,0.727-0.078c0.195,0,0.395,0.014,0.598,0.043c0.202,0.031,0.4,0.074,0.598,0.132v1.057
	c-0.174-0.1-0.359-0.176-0.557-0.226c-0.198-0.052-0.393-0.076-0.583-0.076c-0.089,0-0.175,0.008-0.253,0.024
	c-0.079,0.015-0.149,0.039-0.211,0.068c-0.06,0.031-0.108,0.068-0.142,0.115c-0.036,0.05-0.053,0.104-0.053,0.164
	c0,0.08,0.026,0.15,0.079,0.208c0.052,0.059,0.118,0.107,0.202,0.149c0.084,0.041,0.177,0.078,0.28,0.111
	c0.103,0.035,0.204,0.068,0.305,0.104c0.182,0.062,0.347,0.132,0.494,0.206c0.146,0.077,0.272,0.163,0.379,0.265
	c0.104,0.102,0.186,0.219,0.241,0.355c0.058,0.137,0.085,0.298,0.085,0.485c0,0.263-0.057,0.486-0.171,0.674
	c-0.114,0.184-0.265,0.337-0.454,0.455c-0.19,0.115-0.407,0.202-0.654,0.254c-0.247,0.054-0.503,0.08-0.77,0.08
	C221.337,35.298,220.886,35.224,220.47,35.073"/>
<g>
	<path fill="#FFFFFF" d="M15.852,9.743c0.006,0,0.012,0,0.018,0h21.955c0.006,0,0.012,0,0.017,0c1.005,0,1.821-0.815,1.821-1.82
		c0-1.003-0.812-1.817-1.814-1.82V6.101h-4.739v-1.72h-0.002c0-0.01,0.002-0.02,0.002-0.03c0-1.077-0.873-1.95-1.95-1.95
		s-1.95,0.874-1.95,1.95c0,0.01,0.001,0.02,0.002,0.03h0v1.72h-4.727V4.399c0-0.008,0.001-0.016,0.001-0.023
		c0-1.077-0.873-1.95-1.95-1.95c-1.077,0-1.95,0.873-1.95,1.95c0,0.001,0,0.004,0,0.005h-0.001v1.72h-4.734v0.002
		c-1.004,0.001-1.817,0.815-1.817,1.82C14.031,8.928,14.847,9.743,15.852,9.743"/>
	<path fill="#FFFFFF" d="M40.764,33.893v-0.002H26.432V32.21c0-0.552,0.14-0.668,0.658-0.668h2.753c1.026,0,1.443-0.594,1.443-1.34
		v-1.117c0-0.747-0.606-1.155-1.353-1.155h-5.688c-1.22,0-1.673,0.737-1.673,1.551v4.41h-9.447
		c-0.014-0.001-0.028-0.003-0.043-0.003c-1.055,0-1.911,0.855-1.911,1.912c0,1.055,0.856,1.911,1.911,1.911
		c0.004,0,0.007-0.001,0.011-0.001v0.003h27.631c0.013,0,0.026,0.002,0.04,0.002c1.056,0,1.912-0.855,1.912-1.911
		C42.674,34.749,41.819,33.894,40.764,33.893"/>
	<path fill="#FFFFFF" d="M33.989,39.445v-0.004H19.556v0.004c-1.073,0.003-1.942,0.872-1.942,1.946s0.871,1.945,1.946,1.945
		c0.027,0,0.054-0.003,0.081-0.004h14.256c0.027,0.001,0.053,0.004,0.081,0.004c1.075,0,1.946-0.871,1.946-1.945
		C35.922,40.32,35.058,39.453,33.989,39.445"/>
	<path fill="#FFFFFF" d="M45.874,22.56c-0.015,0-0.029,0.001-0.043,0.001h-1.285v-5.985c0-3.052-1.794-5.056-4.738-5.056
		l-11.82-0.001v2.033c0,2.316-1.334,3.771-4.71,3.771c-1.338,0-1.613,0.49-1.613,0.971l-0.02,1.049c0,0.833,0.366,1.097,1.886,1.097
		c0,0,5.129,0.002,5.144,0.002c2.319,0,2.619-0.37,2.619-2.533l-0.003-2.747l3.263-0.001v3.023c0,3.115-0.916,4.976-4.044,4.976
		l-9.307-0.043c-2.047,0-2.681-1.488-2.681-2.584v-2.897c0-2.249,1.137-3.028,2.989-3.028c2.021,0,3.055-0.536,3.055-1.961V11.52
		h-13.14h-0.001h-0.007l0,0c-1.002,0.004-1.813,0.818-1.813,1.82s0.811,1.815,1.813,1.82v0.001h3.698v1.784H8.617
		c-0.002,0-0.004,0-0.006,0c-1.005,0-1.82,0.815-1.82,1.821c0,1.003,0.812,1.817,1.815,1.82v0.002h6.509v1.974h-7.18
		c-0.014,0-0.028-0.001-0.042-0.001c-1.005,0-1.82,0.815-1.82,1.82c0,1.006,0.815,1.819,1.82,1.819c0.001,0,0.003,0,0.004,0v0.005
		l25.267-0.007c3.804,0,5.17-3.369,5.17-6.88v-4.156h2.406v9.461c0,0.638,0.549,1.577,1.417,1.577l3.736,0.005v-0.005
		c0.996-0.011,1.801-0.82,1.801-1.819C47.694,23.375,46.879,22.56,45.874,22.56"/>
	<path fill="#FFFFFF" d="M18.919,29.771v-0.239c0-0.605,0.138-1.459,0.382-1.511H9.636v0.004c-0.004,0-0.008-0.002-0.012-0.002
		c-1.113,0-2.017,0.903-2.017,2.017c0,1.115,0.903,2.018,2.017,2.018c0.016,0,0.031-0.002,0.046-0.002h9.763
		C18.841,31.926,18.919,30.403,18.919,29.771"/>
	<path fill="#FFFFFF" d="M44.042,28.023c-0.003,0-0.007,0.001-0.011,0.001v-0.003h-9.644c0.313,0.122,0.36,0.905,0.36,1.511v0.239
		c0,0.632,0.072,2.154-0.521,2.284h9.769c0.016,0,0.031,0.002,0.047,0.002c1.114,0,2.017-0.903,2.017-2.016
		C46.058,28.927,45.155,28.023,44.042,28.023"/>
</g>
</svg>
